<svg width="5690" height="1990" viewBox="0 0 5690 1990" fill="none" xmlns="http://www.w3.org/2000/svg">
<path d="M117.972 929.796H0V811.816C0 746.688 52.8489 693.836 117.972 693.836C183.095 693.836 235.944 746.688 235.944 811.816C235.944 876.943 183.095 929.796 117.972 929.796Z" fill="#EFC202"/>
<path d="M216.464 919.551H214.233C146.894 919.551 92.3047 974.143 92.3047 1041.49V1043.72C92.3047 1111.06 146.894 1165.65 214.233 1165.65H216.464C283.803 1165.65 338.392 1111.06 338.392 1043.72V1041.49C338.392 974.143 283.803 919.551 216.464 919.551Z" fill="#EFC202"/>
<path d="M61.1669 1281.71C58.4281 1292.87 57.1094 1304.33 57.1094 1315.89L57.3122 1351.7L311.718 1404.76L323.484 1383.76C331.498 1369.56 336.468 1354.65 339.207 1339.63L61.1669 1281.71Z" fill="#EFC202"/>
<path d="M245.682 1522.33L282.2 1457.2L57.6172 1410.44L57.9215 1483.17L245.682 1522.33Z" fill="#EFC202"/>
<path d="M337.481 1280.69C325.309 1230.17 286.255 1187.16 230.059 1176.3C227.827 1175.9 225.697 1175.49 223.465 1175.19C170.008 1167.28 119.188 1189.39 87.6406 1228.65L337.481 1280.79V1280.69Z" fill="#EFC202"/>
<path d="M58.2266 1541.91L58.4294 1576.81C58.6323 1612.92 85.1075 1643.56 120.915 1648.83C150.94 1653.3 180.56 1638.69 195.37 1612.21L216.368 1574.78L58.328 1541.81L58.2266 1541.91Z" fill="#EFC202"/>
<path d="M992.16 3.20293H1002C1243.32 3.20293 1439.2 199.092 1439.2 440.428V448.544C1439.2 689.88 1243.32 885.769 1002 885.769H387.796C380.289 885.769 374.203 879.683 374.203 872.176V621C374.203 279.943 651.128 3 992.16 3V3.20293Z" fill="#12338A"/>
<path d="M1439.2 1485.51V1495.35C1439.2 1762.86 1222.02 1980.05 954.527 1980.05H858.973C591.482 1980.05 374.304 1762.86 374.304 1495.35V976.054C374.304 942.375 401.591 915.086 435.268 915.086L868.711 915.086C1183.57 915.086 1439.2 1170.73 1439.2 1485.61V1485.51Z" fill="#12338A"/>
<path d="M87.2344 632.36C130.853 616.027 175.384 621.607 200.033 647.78C215.553 664.315 219.103 684.604 220.523 693.937C228.638 744.659 228.233 793.961 228.233 804.207" fill="#EFC202"/>
<path d="M23.125 701.548C48.7887 665.636 103.666 662.593 128.214 688.766C143.734 705.301 147.285 725.59 148.705 734.923C156.82 785.645 156.414 834.947 156.414 845.193" fill="#EFC202"/>
<path d="M3431.63 1134.71C3409.11 1334.77 3625.01 1367.52 3735.78 1358.88C3768.23 1365.19 3749.3 1390.8 3735.78 1402.81C3642.29 1462.89 3457.77 1622.93 3467.68 1782.44C3477.6 1941.95 3643.79 1983.33 3725.65 1984.08C3828.16 1988.58 4060.89 1993.32 4171.73 1976.19C4282.58 1959.07 4345.83 1904.44 4362.73 1878.91C4424.68 1739.22 4384.64 1665.28 4321.56 1607.83C4258.47 1550.38 4048.95 1563.9 4033.18 1561.65C4017.41 1559.4 4011.26 1544.34 4016.9 1531.95C4019.61 1525.98 4104.9 1438.86 4143.57 1393.8C4195.01 1329.97 4292.94 1176.62 4273.12 1073.88C4248.33 945.464 4041.06 943.211 4003.89 937.578C3966.71 931.946 3459.8 884.634 3431.63 1134.71Z" fill="#12338A"/>
<path d="M4219.61 1145.75C4197.66 1144.14 4211.24 1096.85 4139.06 1054.85C4066.88 1012.84 4009.55 1011.25 4018.03 996.673C4026.51 982.099 4099.01 954.544 4171.18 996.546C4243.36 1038.55 4244.75 1117.97 4219.61 1145.75Z" fill="#263238"/>
<path d="M3542.77 1734.01C3563.11 1742.44 3535.35 1783.07 3590.67 1845.63C3645.98 1908.2 3699.9 1927.74 3687.27 1938.9C3674.64 1950.07 3597.15 1953.44 3541.84 1890.88C3486.53 1828.31 3510.17 1752.48 3542.77 1734.01Z" fill="#263238"/>
<circle cx="4202.77" cy="1187.25" r="20.2766" fill="#263238"/>
<path d="M2354.01 1721.78C2353.1 1725.03 2351.98 1728.27 2350.76 1731.42C2297.1 1871.41 2177.71 1990 1972.4 1990C1727.73 1990 1484.89 1824.95 1474.24 1473.95C1465.42 1114.53 1699.53 918.138 1963.58 930.718C2222.34 939.036 2345.49 1152.17 2359.59 1323.51C2371.86 1463.5 2350.76 1517.88 2238.17 1517.88C2192.72 1517.88 2062.78 1519.1 1950.09 1520.31C1818.72 1521.73 1814.97 1720.36 1946.33 1723.2C2026.47 1724.93 2116.75 1677.65 2185.01 1598.63C2260.28 1514.94 2393.47 1580.16 2353.91 1721.98L2354.01 1721.78ZM1805.23 1290.03C1799.96 1313.06 1808.78 1333.96 1824.61 1333.96H2030.52C2072.72 1333.96 2092.1 1298.45 2078.1 1235.76C2065.83 1175.2 2035.9 1089.48 1937.3 1099.93C1858.08 1106.22 1821.16 1202.28 1805.33 1290.03H1805.23Z" fill="#12338A"/>
<path d="M3316.69 1721.78C3315.78 1725.03 3314.66 1728.27 3313.44 1731.42C3259.78 1871.41 3140.39 1990 2935.08 1990C2690.41 1990 2447.57 1824.95 2436.92 1473.95C2428.1 1114.53 2662.21 918.138 2926.26 930.718C3185.02 939.036 3308.17 1152.17 3322.27 1323.51C3334.54 1463.5 3313.44 1517.88 3200.85 1517.88C3155.4 1517.88 3025.46 1519.1 2912.76 1520.31C2781.4 1521.73 2777.65 1720.36 2909.01 1723.2C2989.15 1724.93 3079.43 1677.65 3147.69 1598.63C3222.96 1514.94 3356.15 1580.16 3316.59 1721.98L3316.69 1721.78ZM2767.91 1290.03C2762.64 1313.06 2771.46 1333.96 2787.29 1333.96H2993.2C3035.4 1333.96 3054.78 1298.45 3040.78 1235.76C3028.5 1175.2 2998.58 1089.48 2899.98 1099.93C2820.76 1106.22 2783.84 1202.28 2768.01 1290.03H2767.91Z" fill="#12338A"/>
<path d="M2243.58 688.179C2207.67 842.679 2059.37 904.763 1878.5 904.763C1537.87 904.763 1407.43 695.28 1506.94 578.01C1555.83 521.201 1651.99 528.303 1681.31 624.168C1717.12 743.162 1782.34 751.988 1845.94 762.639C1894.83 769.74 1971.42 768.016 1982.88 712.932C1997.59 645.471 1891.59 625.892 1767.73 567.359C1650.37 510.55 1467.88 414.685 1537.87 182.073C1586.77 24.0221 1744.91 -4.38238 1899.7 4.54473C2162.12 20.573 2248.44 208.753 2170.24 309.994C2132.7 356.151 2041.51 357.977 2003.98 288.691C1973.04 230.056 1979.53 150.219 1873.63 143.118C1827.99 137.741 1782.34 150.219 1774.22 196.376C1766.11 244.359 1818.25 278.039 1942.1 331.297C2139.3 418.337 2294.19 468.045 2243.68 688.179H2243.58Z" fill="#006DFF"/>
<path d="M3078.47 675.904C3077.66 678.643 3076.75 681.484 3075.74 684.121C3029.89 803.623 2928.04 904.763 2752.76 904.763C2543.9 904.763 2336.56 763.856 2327.53 464.19C2320.03 157.422 2519.86 -10.266 2745.25 0.487081C2966.08 7.58819 3071.27 189.58 3083.34 335.761C3093.89 455.263 3075.84 501.623 2979.67 501.623C2940.82 501.623 2829.95 502.739 2733.79 503.753C2621.6 504.97 2618.46 674.585 2730.54 676.919C2798.91 678.339 2876.01 638.065 2934.33 570.503C2998.54 499.087 3112.25 554.78 3078.58 675.803L3078.47 675.904ZM2610.04 307.357C2605.57 326.935 2613.08 344.79 2626.57 344.79H2802.36C2838.47 344.79 2854.91 314.458 2842.94 260.996C2832.39 209.26 2806.83 136.118 2722.73 145.045C2655.07 150.422 2623.53 232.491 2610.04 307.357Z" fill="#006DFF"/>
<path d="M3514.74 806.532C3509.87 814.85 3498.51 832.603 3478.63 849.848C3401.43 917.207 3258.3 923.294 3196.94 864.253C3136.68 806.227 3200.69 728.724 3195.62 503.517C3190.54 278.209 3122.38 174.228 3189.12 111.84C3220.47 82.5224 3268.35 74.8126 3351.63 61.422C3414.52 51.2775 3437.85 57.8716 3454.28 70.1464C3473.45 84.45 3485.42 107.985 3489.79 139.433C3533.71 92.2611 3595.38 54.9297 3684.75 54.9297C3858.61 54.9297 3923.63 197.966 3858.61 314.932C3814.69 391.32 3696.11 410.797 3634.33 327.917C3590.41 269.383 3600.25 215.82 3544.97 215.82C3544.97 215.82 3528.94 215.922 3516.06 223.936C3491.71 239.051 3492.42 284.6 3492.93 298.701C3497.9 447.418 3594.77 671.002 3514.64 806.43L3514.74 806.532Z" fill="#006DFF"/>
<path d="M4856.18 113.393C4852.93 193.94 4787.71 171.623 4724.21 358.382C4658.99 543.416 4582.4 767.811 4574.29 790.028C4540.1 885.994 4496.08 904.761 4411.28 904.761C4334.69 904.761 4274.33 899.588 4236.9 798.549C4230.41 779.68 4163.56 596.472 4104.93 432.03C4059.29 305.225 4036.46 271.038 4000.66 221.33C3968.09 173.347 3953.39 154.478 3958.26 116.843C3961.5 80.8298 3985.95 65.4102 4044.68 65.4102H4282.65C4346.25 65.4102 4385.31 72.3084 4378.82 128.813C4373.95 185.317 4329.92 202.462 4349.5 257.242C4362.59 300.051 4479.85 651.252 4479.85 651.252L4582.5 358.382C4644.48 181.97 4567.79 192.216 4567.79 113.393C4567.79 87.728 4579.15 65.4102 4633.02 65.4102H4807.39C4841.57 65.4102 4857.9 87.728 4856.28 113.393H4856.18Z" fill="#006DFF"/>
<path d="M5681.54 675.904C5680.73 678.643 5679.81 681.484 5678.8 684.121C5632.95 803.623 5531.11 904.763 5355.82 904.763C5146.96 904.763 4939.62 763.856 4930.6 464.19C4923.09 157.422 5122.92 -10.266 5348.32 0.487081C5569.14 7.58819 5674.34 189.58 5686.41 335.761C5696.96 455.263 5678.9 501.623 5582.74 501.623C5543.89 501.623 5433.02 502.739 5336.85 503.753C5224.66 504.97 5221.52 674.585 5333.61 676.919C5401.98 678.339 5479.07 638.065 5537.39 570.503C5601.6 499.087 5715.32 554.78 5681.64 675.803L5681.54 675.904ZM5213.1 307.357C5208.64 326.935 5216.14 344.79 5229.63 344.79H5405.42C5441.54 344.79 5457.97 314.458 5446 260.996C5435.45 209.26 5409.89 136.118 5325.8 145.045C5258.14 150.422 5226.59 232.491 5213.1 307.357Z" fill="#006DFF"/>
</svg>
